<svg width="22" height="19" viewBox="0 0 22 19" fill="none" xmlns="http://www.w3.org/2000/svg">
<path fill-rule="evenodd" clip-rule="evenodd" d="M20.2627 2.61455H4.57545C4.47348 2.61455 4.38459 2.64984 4.28916 2.67207L3.78194 0.504607C3.71265 0.209164 3.44989 0 3.1453 0H1.26936C0.908552 0 0.615723 0.292829 0.615723 0.653636C0.615723 1.01444 0.907244 1.30727 1.26936 1.30727H2.62762L3.43943 4.77939L4.57545 10.4582C4.57545 10.5052 4.59768 10.5458 4.6029 10.5915L3.9375 13.5852C3.89436 13.7787 3.94142 13.9813 4.06562 14.1355C4.18981 14.2911 4.37675 14.38 4.57545 14.38H19.4052C19.766 14.38 20.0588 14.0872 20.0588 13.7264C20.0588 13.3656 19.766 13.0727 19.4052 13.0727H5.39119L5.69056 11.7262C5.75592 11.7367 5.81475 11.7655 5.88272 11.7655H17.7985C18.5201 11.7655 18.9555 11.623 19.3032 10.785L21.4262 4.27217C21.7948 3.10477 20.9856 2.61455 20.2627 2.61455V2.61455ZM4.57545 16.9945C4.57545 17.4616 4.82462 17.8932 5.22909 18.1267C5.63356 18.3602 6.13189 18.3602 6.53636 18.1267C6.94083 17.8932 7.19 17.4616 7.19 16.9945C7.19 16.2726 6.60471 15.6873 5.88272 15.6873C5.16074 15.6873 4.57545 16.2726 4.57545 16.9945V16.9945ZM16.3409 16.9945C16.3409 17.4616 16.5901 17.8932 16.9945 18.1267C17.399 18.3602 17.8973 18.3602 18.3018 18.1267C18.7063 17.8932 18.9555 17.4616 18.9555 16.9945C18.9555 16.2726 18.3702 15.6873 17.6482 15.6873C16.9262 15.6873 16.3409 16.2726 16.3409 16.9945V16.9945Z" fill="white"/>
</svg>
