<svg width="60" height="38" viewBox="0 0 60 38" fill="none" xmlns="http://www.w3.org/2000/svg">
<g clip-path="url(#clip0_0_29)">
<path fill-rule="evenodd" clip-rule="evenodd" d="M26.0661 5.3085L26.0675 5.319L26.0685 5.3377L26.0661 5.3174V5.3085ZM33.8646 12.5556L33.8408 12.52L33.8299 12.4967L33.8271 12.4838L33.8295 12.4797L33.8356 12.4834L33.8423 12.4889L33.8575 12.5123L33.8851 12.5655L33.8961 12.5897L33.8646 12.5556ZM41.2978 11.2554L41.3008 11.2627L41.3044 11.2801L41.3083 11.3063L41.3122 11.3403L41.3136 11.3549L41.309 11.3421L41.2982 11.2866L41.2963 11.2616L41.2978 11.2554ZM40.6027 25.6803L40.5562 25.9539L40.5064 26.226L40.4535 26.4958L40.3969 26.764L40.337 27.0302L40.2735 27.2949L40.2066 27.5572L40.1359 27.8176L40.0615 28.076L39.9834 28.3324L39.9016 28.5861L39.8159 28.8382L39.7264 29.0877L39.633 29.3351L39.536 29.5795L39.4348 29.8223L39.3299 30.0622L39.221 30.2998L39.1082 30.5351L38.9911 30.7683L38.8704 30.9987L38.7455 31.2268L38.6164 31.4529L38.4832 31.6767L38.3457 31.8986L38.2038 32.1186L38.0572 32.3371L38.0075 32.4089L38.001 32.4183L38.002 32.4164L38.0026 32.4148L37.9947 32.4249L37.9795 32.4442L37.9577 32.4716L37.9306 32.5052L37.8988 32.5442L37.8624 32.5882L37.8222 32.6361L37.7782 32.688L37.7309 32.7431L37.6804 32.8011L37.6271 32.8617L37.5715 32.924L37.5134 32.9882L37.4531 33.0541L37.3907 33.1216L37.2889 33.2295L37.1494 33.3738L37.011 33.5125L36.8701 33.6493L36.7291 33.7815L36.5897 33.9071L36.4533 34.0248L36.3233 34.1314L36.2011 34.2259L36.0894 34.3066L35.9905 34.3723L35.9429 34.4003L35.9239 34.4103L35.8924 34.4274L35.865 34.4411L35.8419 34.4515L35.8199 34.478L35.7994 34.5068L35.7799 34.534L35.7608 34.5597L35.7424 34.5836L35.7249 34.6045L35.706 34.6246L35.6862 34.6437L35.6661 34.659L35.6452 34.6703L35.6218 34.6804L35.5955 34.6886L35.5661 34.6947L35.5362 34.6942L35.5043 34.689L35.4695 34.6797L35.4319 34.6657L35.3919 34.6461L35.3497 34.6204L35.3373 34.6105L35.3487 34.6223L35.2971 34.5723L35.2126 34.4844L35.1397 34.3995L35.0739 34.3135L35.016 34.2248L34.9683 34.1318L34.927 34.038L34.8915 33.9432L34.8619 33.8479L34.8378 33.7517L34.8207 33.6539L34.8104 33.5542L34.8049 33.4541L34.8045 33.3532L34.8094 33.2515L34.8188 33.1487L34.8326 33.0452L34.8506 32.9412L34.8727 32.8361L34.8989 32.7298L34.9292 32.6223L34.9634 32.5136L35.0016 32.4033L35.0438 32.2915L35.09 32.1779L35.1402 32.0625L35.1945 31.9449L35.2525 31.8255L35.3148 31.704L35.381 31.5804L35.4516 31.4544L35.5264 31.3261L35.605 31.196L35.6881 31.0632L35.7753 30.9283L35.8665 30.7914L35.9622 30.6518L36.0616 30.5106L36.1656 30.3668L36.2731 30.2214L36.3847 30.074L36.5004 29.9245L36.6198 29.7733L36.7432 29.6202L36.8701 29.4654L37.0002 29.3092L37.1342 29.1514L37.2716 28.992L37.4892 28.7443L37.7885 28.4126L38.0944 28.0831L38.4114 27.75L38.7389 27.414L39.0727 27.0728L39.4149 26.7295L39.7648 26.3851L40.122 26.0396L40.4857 25.6938L40.6205 25.5667L40.6027 25.6803ZM21.3641 20.5585L21.3392 20.5626L21.3128 20.5652L21.2853 20.5663L21.2567 20.5658L21.2447 20.5648L21.2961 20.5523L21.3426 20.5454L21.38 20.544L21.3841 20.5489L21.3479 20.5539L21.386 20.551L21.3877 20.5533L21.3641 20.5585ZM19.0613 13.7544L19.0574 13.7685L19.0605 13.7527L19.0632 13.7443L19.0613 13.7544ZM53.6685 0.94163L53.2002 0.949677L52.2663 0.97212L51.331 1.00467L50.3959 1.04445L49.4592 1.09444L48.521 1.15398L47.5825 1.22122L46.6419 1.29955L45.6897 1.408L44.7253 1.54909L43.746 1.72738L42.7688 1.90996L41.7922 2.09656L40.8169 2.28683L39.843 2.48041L38.8686 2.67738L37.4104 2.97772L35.4511 3.4296L33.4461 4.00041L31.4267 4.61592L29.6307 5.14023L29.651 5.03231L29.676 4.8939L29.6996 4.75898L29.7218 4.62629L29.7425 4.49637L29.7619 4.36923L29.7796 4.24477L29.7959 4.12335L29.8106 4.00443L29.8237 3.88837L29.8352 3.77509L29.845 3.66449L29.8531 3.55648L29.8594 3.45115L29.8638 3.34797L29.8661 3.24729L29.8666 3.19123C29.8667 3.18721 29.8667 3.18318 29.8666 3.17916L29.8665 3.14796L29.8652 3.07374L29.8624 2.99756L29.8574 2.9221L29.8491 2.84413L29.8355 2.75875L29.8104 2.65682L29.7572 2.52332L29.6162 2.33833L29.1463 2.15781L27.8706 2.55739L26.7836 3.48611L26.3791 4.03724L26.2169 4.33052L26.1339 4.51238L26.0819 4.64346L26.044 4.74977L26.0139 4.84204L25.9877 4.92743L25.9639 5.01004L25.9417 5.09096L25.9202 5.17233L25.8992 5.25467L25.8786 5.33863L25.8581 5.42393L25.8377 5.51138L25.8074 5.64442L25.7664 5.83084L25.7247 6.02683L25.6883 6.20307L25.4739 6.25877L23.5224 6.72836L22.5463 6.95743C22.0465 7.06356 21.4476 7.5801 21.2084 8.11102C20.9694 8.64204 21.1807 8.98645 21.6805 8.88032L22.6343 8.69962L24.5413 8.33992L25.3122 8.2058L25.2835 8.37085L25.2499 8.56604L25.2183 8.75211L25.196 8.88542L25.1819 8.97072L25.1685 9.05235L25.1557 9.13094L25.1436 9.20623L25.1321 9.2782L25.1266 9.31343V9.31308L25.1151 9.38514L25.0914 9.53213L25.0663 9.68556L25.0395 9.84767L25.0112 10.0174L24.9816 10.1949L24.951 10.379L24.9196 10.5695L24.8874 10.7666L24.8722 10.8613L24.8293 11.0058L24.7199 11.3665L24.6069 11.7309L24.4908 12.0979L24.3715 12.4673L24.2494 12.8378L24.1255 13.2061L23.9335 13.7629L23.7348 14.3218L23.6007 14.6897L23.4645 15.0553L23.3269 15.4172L23.1876 15.7757L23.0472 16.1291L22.9058 16.4774L22.7635 16.8194L22.6208 17.1545L22.4779 17.4816L22.335 17.8003L22.1928 18.1093L22.0585 18.4068L21.9255 18.6932L21.7939 18.9676L21.6646 19.2283L21.5381 19.4748L21.4153 19.7051L21.2972 19.9184L21.1797 20.1208L21.0939 20.2626L21.0428 20.3448L20.9944 20.421L20.9607 20.4727L20.9605 20.4726L20.9253 20.4515L20.8901 20.4281L20.8548 20.4023L20.8194 20.3743L20.7843 20.344L20.7494 20.3113L20.7147 20.2763L20.6805 20.239L20.6488 20.2028L20.6007 20.1424L20.5357 20.0498L20.473 19.9486L20.4133 19.8391L20.3565 19.7217L20.3029 19.5971L20.2525 19.4653L20.2055 19.327L20.162 19.1823L20.1221 19.0322L20.0856 18.8766L20.0526 18.7161L20.0386 18.6371L20.0652 18.5616L20.1555 18.2868L20.2655 17.9207L20.3657 17.5528L20.4556 17.1894L20.5392 16.8292L20.6161 16.4733L20.6873 16.1218L20.7542 15.7748L20.8486 15.2655L20.9399 14.7671L21.0031 14.4437L21.0345 14.2873L21.0307 14.3041L21.0368 14.2756L21.0421 14.2541L21.0481 14.2329L21.0583 14.1996L21.0729 14.1557L21.0912 14.1028L21.1267 14.0061L21.1821 13.8614L21.2437 13.7037L21.3102 13.5336L21.3631 13.3979L21.3996 13.3023L21.4347 13.2075L21.469 13.1108L21.5023 13.012L21.5339 12.911L21.5636 12.8064L21.5903 12.6976L21.6129 12.5827L21.629 12.46L21.6346 12.328L21.6225 12.1858L21.5893 12.059L21.5463 11.9687L21.4945 11.8977L21.4257 11.8339L21.3386 11.781L21.2332 11.7431L21.1116 11.7229L20.9782 11.7216L20.8375 11.7385L20.695 11.7708L20.5548 11.8154L20.4203 11.8687L20.3308 11.9093C20.3036 11.9222 20.2763 11.9358 20.249 11.9502L20.2079 11.9717L19.9522 12.1237L19.647 12.3431L19.3675 12.5834L19.1234 12.8287L18.9143 13.0693L18.7367 13.3L18.5842 13.5213L18.4504 13.7344L18.3315 13.9417L18.2246 14.1449L18.1271 14.3458L18.0373 14.5461L17.9526 14.7471L17.8726 14.9491L17.7964 15.1534L17.7224 15.3604L17.6515 15.5699L17.5842 15.782L17.5198 15.9968L17.4581 16.2142L17.3999 16.4341L17.3447 16.6561L17.2927 16.8804L17.2438 17.1062L17.1982 17.3337L17.1559 17.5625L17.117 17.7924L17.0816 18.023L17.0499 18.2539L17.0217 18.485L16.9973 18.7158L16.9767 18.9462L16.9601 19.1757L16.9475 19.4039L16.9392 19.6308L16.9351 19.8559L16.9355 20.0787L16.9381 20.1897L16.8975 20.2608L16.9168 20.2253L16.8946 20.2606L16.8207 20.3753L16.7407 20.4904L16.6548 20.606L16.5622 20.7227L16.4629 20.8405L16.3566 20.9596L16.2435 21.0798L16.1233 21.2009L15.9958 21.3232L15.861 21.4466L15.719 21.5699L15.5701 21.6931L15.4139 21.8167L15.2517 21.9395L15.0825 22.0621L14.9076 22.1835L14.7265 22.3037L14.54 22.4222L14.3482 22.5387L14.1512 22.6531L13.9496 22.7648L13.7434 22.8738L13.5336 22.9795L13.3195 23.082L13.1022 23.1807L12.88 23.2832L12.6545 23.3826L12.4257 23.4779L12.1941 23.5685L11.9598 23.6545L11.7239 23.7354L11.4855 23.8111L11.2458 23.8811L11.0049 23.9454L10.7628 24.0038L10.5202 24.0557L10.277 24.1013L10.0341 24.1401L9.7909 24.1721L9.54847 24.1969L9.30632 24.2143L9.06545 24.2241L8.8254 24.2262L8.587 24.2201L8.35052 24.206L8.10846 24.1862L7.92733 24.1653L7.81069 24.1489L7.69442 24.1302L7.57869 24.1092L7.46407 24.086L7.34971 24.0604L7.23628 24.0323L7.12366 24.0019L7.01169 23.9691L6.90072 23.9338L6.79049 23.896L6.68117 23.8555L6.57285 23.8127L6.46545 23.7672L6.35915 23.7191L6.25367 23.6683L6.14938 23.6148L6.04619 23.5586L5.9441 23.4997L5.84311 23.4379L5.74339 23.3734L5.64487 23.3059L5.54762 23.2356L5.45166 23.1624L5.35706 23.0863L5.26375 23.0072L5.172 22.9251L5.08152 22.8398L4.99242 22.7515L4.90505 22.6601L4.81897 22.5654L4.73472 22.4677L4.65202 22.3667L4.56868 22.2594L4.52769 22.2045L4.49302 22.1569L4.41709 22.0464L4.34592 21.9347L4.27969 21.8222L4.21803 21.7086L4.16094 21.594L4.10843 21.4783L4.06031 21.362L4.01649 21.2449L3.97697 21.1271L3.94157 21.0081L3.91028 20.889L3.88293 20.769L3.85951 20.6483L3.83994 20.5271L3.82402 20.4054L3.81185 20.2833L3.80325 20.1602L3.79813 20.0373L3.79648 19.9136L3.79822 19.7895L3.80325 19.6649L3.81148 19.5402L3.82301 19.4145L3.83756 19.2892L3.85512 19.163L3.8758 19.0368L3.89931 18.9102L3.92584 18.783L3.95511 18.6557L3.98722 18.528L4.02207 18.4001L4.05977 18.2718L4.10011 18.1429L4.14311 18.0139L4.18857 17.8849L4.23678 17.7552L4.28344 17.6351L4.35973 17.4492L4.47518 17.1883L4.60024 16.9264L4.73472 16.6637L4.87825 16.4006L5.03048 16.1372L5.19139 15.8735L5.36017 15.6105L5.53701 15.3477L5.72134 15.0859L5.913 14.825L6.11133 14.5658L6.31606 14.3084L6.52693 14.0532L6.74319 13.8008L6.96467 13.5514L7.19081 13.3055L7.42098 13.0636L7.65499 12.8259L7.89211 12.5929L8.13225 12.3648L8.37412 12.1425L8.61765 11.9262L8.86209 11.7163L9.10744 11.513L9.35261 11.3167L9.59696 11.1281L9.84066 10.947L10.0821 10.7745L10.3216 10.6102L10.5579 10.455L10.7911 10.3086L11.0297 10.1662L11.2087 10.0644L11.3201 10.0032L11.4306 9.94432L11.5394 9.88808L11.6469 9.83435L11.7534 9.78275L11.858 9.73394L11.9612 9.68762L12.0627 9.6439L12.1627 9.6025L12.2611 9.5637L12.3579 9.5274L12.4531 9.4936L12.5465 9.46221L12.6384 9.43333L12.7281 9.40714L12.8185 9.37861L12.9259 9.31093L13.0333 9.24611L13.1407 9.18423L13.2483 9.12531L13.3557 9.06952L13.4629 9.01694L13.5791 8.96723L13.6506 8.94309C14.361 8.90205 15.3264 8.19006 15.8068 7.35281C16.2873 6.51556 16.1007 5.8701 15.3902 5.91114L15.3436 5.89379L15.2204 5.8633L15.0844 5.83755L14.9445 5.81609L14.8012 5.79875L14.654 5.78569L14.5031 5.77693L14.349 5.77228L14.1745 5.81395L13.9961 5.86464L13.8169 5.91954L13.6363 5.97873L13.4546 6.04195L13.2719 6.10927L13.088 6.18062L12.9034 6.25573L12.7178 6.33468L12.5317 6.41721L12.345 6.50331L12.158 6.59281L11.9702 6.6858L11.7819 6.78228L11.5936 6.8817L11.4046 6.98461L11.1305 7.1393L10.7607 7.35764L10.3813 7.59288L10.0019 7.83939L9.62339 8.09636L9.24558 8.36388L8.86968 8.64079L8.49497 8.92753L8.12264 9.22322L7.75287 9.52748L7.38567 9.84043L7.02175 10.1615L6.6615 10.4902L6.30564 10.826L5.95398 11.1692L5.60717 11.5191L5.26549 11.8757L4.92966 12.2384L4.60015 12.6068L4.27703 12.9811L3.96133 13.3603L3.65322 13.7446L3.35307 14.1335L3.06189 14.5265L2.77985 14.9235L2.5076 15.3239L2.24569 15.7277L1.99512 16.1336L1.75599 16.5421L1.5293 16.9521L1.3156 17.3634L1.11553 17.7753L0.929726 18.1875L0.796255 18.5056L0.711086 18.7207L0.633967 18.9258L0.56069 19.1308L0.491713 19.3351L0.426944 19.5387L0.366383 19.7418L0.310122 19.9443L0.258435 20.1458L0.211139 20.3467L0.168509 20.5462L0.130453 20.745L0.0971533 20.9425L0.0687026 21.1387L0.0450089 21.3339L0.0262552 21.527L0.0124415 21.7193L0.00365926 21.9097L0 22.0985L0.00137222 22.2857L0.00786741 22.4714L0.0196685 22.6547L0.0366841 22.8364L0.0589141 23.0162L0.0865415 23.1938L0.119475 23.3693L0.157897 23.5428L0.201717 23.7143L0.250934 23.8831L0.305731 24.0498L0.366017 24.2142L0.431884 24.3761L0.503331 24.5355L0.580359 24.6925L0.662966 24.8469L0.751429 24.999L0.84538 25.1483L0.945095 25.2949L1.00035 25.3717C1.00218 25.3742 1.00401 25.3767 1.00584 25.3791L1.05002 25.4385L1.14699 25.5638L1.24863 25.6885L1.35255 25.8096L1.45849 25.9269L1.5668 26.0408L1.67713 26.1509L1.78965 26.2576L1.90437 26.3608L2.02101 26.4604L2.13975 26.5566L2.26042 26.6492L2.383 26.7384L2.50751 26.8241L2.63393 26.9065L2.76201 26.9854L2.8921 27.061L3.02383 27.1334L3.1573 27.2023L3.29233 27.2679L3.42927 27.3304L3.56769 27.3895L3.70765 27.4454L3.84899 27.4982L3.99189 27.5477L4.13634 27.5941L4.28207 27.6374L4.42935 27.6776L4.57773 27.7147L4.7274 27.7488L4.87862 27.7799L5.03066 27.8079L5.18398 27.833L5.33858 27.8551L5.56747 27.8824L5.87759 27.909L6.19897 27.9217L6.52336 27.9231L6.85068 27.9135L7.18111 27.8933L7.51374 27.8626L7.84884 27.8217L8.18531 27.7708L8.5237 27.7102L8.86291 27.6399L9.20331 27.5603L9.54417 27.4717L9.8854 27.3742L10.2268 27.2679L10.5677 27.1531L10.9085 27.0299L11.2483 26.8988L11.5872 26.7596L11.9248 26.6128L12.261 26.4583L12.5954 26.2956L12.929 26.118L13.2592 25.9338L13.5869 25.7428L13.9108 25.5455L14.2311 25.3417L14.5475 25.132L14.8598 24.9161L15.1675 24.6944L15.4703 24.467L15.7686 24.2338L16.0609 23.9954L16.3481 23.7512L16.6288 23.5022L16.9034 23.2476L17.1713 22.9885L17.432 22.7251L17.4532 22.7027L17.4969 22.7877L17.5652 22.9046L17.6144 22.9813L17.6636 23.0527L17.715 23.1219L17.7689 23.1892L17.8252 23.2541L17.8839 23.3167L17.9455 23.3766L18.0098 23.4342L18.0768 23.489L18.1469 23.5413L18.2202 23.5908L18.2963 23.6371L18.376 23.6804L18.459 23.7204L18.5457 23.7569L18.6361 23.7899L18.7304 23.8191L18.8284 23.8441L18.9306 23.8649L19.0369 23.8813L19.1473 23.8929L19.2623 23.8996L19.3816 23.9011L19.4559 23.8993C19.4685 23.8986 19.4812 23.8977 19.494 23.8967L19.5276 23.8952L19.6721 23.88L19.851 23.8489L20.0401 23.8027L20.2373 23.7409L20.4407 23.6636L20.6486 23.5712L20.8582 23.4648L21.0671 23.3462L21.2728 23.2171L21.4738 23.0796L21.6679 22.9359L21.855 22.7873L22.0339 22.6359L22.2052 22.4821L22.3685 22.3275L22.5243 22.1725L22.6737 22.0168L22.8163 21.8618L22.9535 21.7067L23.0856 21.5516L23.2135 21.3963L23.3371 21.2411L23.4561 21.0853L23.5712 20.9286L23.6832 20.7719L23.7926 20.6145L23.8996 20.4564L24.0514 20.2257L24.2511 19.9096L24.4505 19.5805L24.6453 19.2458L24.836 18.9057L25.0236 18.5596L25.1759 18.2692L25.2143 18.4256L25.2755 18.6495L25.3424 18.8695L25.4137 19.0861L25.4889 19.2999L25.5705 19.5089L25.6586 19.7129L25.7535 19.9114L25.8553 20.1044L25.9645 20.2913L26.081 20.4718L26.175 20.605L26.2404 20.692L26.3067 20.7755L26.375 20.857L26.4453 20.9367L26.5176 21.0145L26.5923 21.0904L26.669 21.1642L26.7472 21.2365L26.8276 21.3069L26.9104 21.3751L26.9953 21.441L27.0826 21.5047L27.1724 21.5663L27.2642 21.6253L27.3587 21.6822L27.4554 21.7365L27.5547 21.7883L27.6562 21.8377L27.7604 21.8844L27.8671 21.9285L27.9762 21.9699L28.088 22.0087L28.202 22.045L28.2634 22.0632C28.2661 22.064 28.2689 22.0648 28.2717 22.0656L28.3689 22.0923L28.5764 22.1433L28.7878 22.1867L28.9988 22.2212L29.2093 22.2468L29.4191 22.2641L29.6281 22.2737L29.8373 22.2743L30.0465 22.2661L30.2565 22.2488L30.4669 22.2225L30.6781 22.187L30.8904 22.1421L31.1033 22.0876L31.3176 22.0234L31.5322 21.9496L31.7479 21.8657L31.9638 21.7726L32.1799 21.6706L32.3958 21.5585L32.6109 21.4366L32.8247 21.3053L33.0363 21.1651L33.2452 21.0164L33.4498 20.8605L33.6504 20.6975L33.846 20.5283L34.0355 20.3541L34.2201 20.1762L34.3986 19.9948L34.5707 19.8102L34.7363 19.6229L34.8789 19.4534L34.9983 19.5606L35.0978 19.6399L35.168 19.6908L35.2375 19.7371L35.3092 19.7811L35.383 19.8227L35.4591 19.8618L35.5376 19.8984L35.6185 19.9322L35.7017 19.9632L35.7877 19.9913L35.8759 20.0165L35.9669 20.0385L36.0606 20.0573L36.1568 20.0728L36.2552 20.0857L36.3564 20.095L36.415 20.0988C36.4197 20.0992 36.4244 20.0994 36.4291 20.0997L36.5153 20.1028L36.7064 20.1056L36.9025 20.102L37.0978 20.0918L37.2923 20.0746L37.4865 20.0505L37.6801 20.0199L37.8733 19.983L38.0668 19.9387L38.2611 19.8866L38.4559 19.8265L38.6519 19.7579L38.8483 19.6809L39.046 19.5951L39.2439 19.5007L39.4421 19.3982L39.6399 19.2868L39.8372 19.1664L40.0328 19.0377L40.2259 18.9011L40.4154 18.7573L40.6008 18.6072L40.7814 18.4512L40.9563 18.2918L40.9616 18.2866L40.9706 18.8556L40.9771 19.4626L40.9793 20.0648L40.9764 20.6633L40.9674 21.2571L40.9516 21.8464L40.9441 22.0326L40.9144 22.0593L40.4939 22.4404L40.0725 22.8271L39.6515 23.2184L39.2312 23.6145L38.8145 24.0179L38.402 24.4259L37.9924 24.8377L37.5866 25.2531L37.1858 25.6715L36.7909 26.093L36.4057 26.5196L36.0278 26.9485L35.6578 27.3793L35.3024 27.8053L35.0436 28.1238L34.8709 28.3407L34.7008 28.558L34.5333 28.7758L34.369 28.9936L34.2081 29.2116L34.0503 29.43L33.8957 29.6487L33.7446 29.8676L33.597 30.0866L33.4536 30.3053L33.3137 30.5246L33.1783 30.7433L33.0468 30.9624L32.92 31.181L32.7978 31.3995L32.6802 31.6179L32.568 31.8355L32.4611 32.0525L32.3596 32.2691L32.2638 32.4847L32.1739 32.6993L32.0905 32.9125L32.0136 33.1245L31.9432 33.3349L31.8798 33.5435L31.8236 33.7499L31.7746 33.9543L31.7332 34.156L31.6994 34.3548L31.6735 34.5509L31.6556 34.7437L31.6457 34.9329L31.6441 35.1184L31.6507 35.3002L31.6649 35.4785L31.6873 35.6528L31.718 35.8226L31.7556 35.9893L31.8 36.1528L31.8528 36.3119L31.914 36.4662L31.9837 36.6162L32.0616 36.7616L32.1441 36.9056L32.2338 37.0467L32.3314 37.1832L32.433 37.3106L32.4802 37.366C32.484 37.37 32.4878 37.374 32.4917 37.3778L32.5466 37.435L32.6437 37.5314L32.7488 37.6181L32.8622 37.6949L32.9836 37.7615L33.1132 37.8176L33.2496 37.8643L33.3913 37.9037L33.5406 37.9321L33.6969 37.9492L33.86 37.9552L34.0275 37.9531L34.1987 37.943L34.3743 37.9226L34.5543 37.8922L34.7361 37.8544L34.9199 37.8083L35.1056 37.7541L35.2924 37.6922L35.4796 37.6192L35.6673 37.5219L35.8522 37.4197L36.0341 37.3133L36.2293 37.1927L36.5045 37.0124L36.8368 36.7791L37.1558 36.5396L37.4618 36.2959L37.7556 36.0497L38.0368 35.8032L38.3068 35.5567L38.5651 35.312L38.8117 35.0704L39.0469 34.8325L39.2653 34.6054L39.4205 34.4403L39.5234 34.3288L39.6235 34.219L39.7205 34.1112L39.8147 34.0054L39.9052 33.9022L39.9928 33.8012L40.0773 33.7025L40.1587 33.6062L40.2372 33.5119L40.3127 33.4202L40.3856 33.3303L40.4559 33.2423L40.5238 33.1557L40.5905 33.0692L40.6564 32.9819L40.7226 32.8919L40.7806 32.8107L40.7938 32.7918C40.8007 32.7819 40.8076 32.772 40.8145 32.762L40.939 32.5803L41.1611 32.2464L41.3746 31.9127L41.5793 31.5796L41.7757 31.2471L41.9635 30.9156L42.143 30.5848L42.3147 30.2549L42.4781 29.9266L42.6341 29.5992L42.7826 29.2726L42.9238 28.9473L43.058 28.6234L43.1855 28.2998L43.3061 27.978L43.4205 27.6572L43.5285 27.3375L43.6307 27.0183L43.7271 26.7004L43.8178 26.3833L43.9032 26.0671L43.9835 25.7512L44.0586 25.4368L44.1289 25.1224L44.1946 24.8089L44.2558 24.4958L44.3126 24.1837L44.3653 23.8718L44.4141 23.5602L44.459 23.2489L44.5002 22.9385L44.5378 22.628L44.5722 22.3178L44.6035 22.0047L44.6045 21.9947L44.6109 21.9892L44.9781 21.6776L45.2487 21.4494L45.4272 21.2994L45.6055 21.1501L45.7825 21.0025L45.9573 20.8568L46.1305 20.7131L46.3021 20.571L46.4715 20.4311L46.6385 20.2934L46.8034 20.1576L46.9665 20.0238L47.1268 19.8923L47.2847 19.7631L47.44 19.6362L47.5925 19.5117L47.7424 19.3893L47.8895 19.2695L48.0337 19.152L48.175 19.0371L48.3135 18.9242L48.4482 18.8145L48.5801 18.7069L48.7087 18.6022L48.834 18.4998L48.9561 18.3999L49.075 18.3025L49.19 18.208L49.3018 18.1158L49.4106 18.0259L49.5159 17.9384L49.6181 17.8531L49.7172 17.7699L49.8134 17.6885L49.9073 17.6083L49.9987 17.5294L50.0886 17.4511L50.1399 17.4058C51.1202 16.54 51.6133 15.3938 51.2412 14.8454C50.8693 14.2972 49.773 14.5545 48.7927 15.4202L48.7798 15.4318L48.7331 15.4726L48.6779 15.5203L48.615 15.5741L48.5446 15.6339L48.4672 15.6989L48.3835 15.7688L48.2936 15.8434L48.1982 15.9224L48.097 16.0058L47.9904 16.0934L47.879 16.1847L47.7628 16.2798L47.6416 16.3788L47.5159 16.4812L47.386 16.5871L47.2515 16.6967L47.1135 16.8091L46.9712 16.925L46.8251 17.0439L46.6753 17.166L46.522 17.2911L46.3649 17.4192L46.2048 17.5501L46.0414 17.6839L45.875 17.8203L45.7059 17.9592L45.5335 18.101L45.3583 18.2455L45.1807 18.3922L45.0007 18.5413L44.8181 18.6929L44.769 18.7337L44.7733 18.4485L44.7763 17.8305L44.7739 17.2118L44.7673 16.5932L44.7574 15.9738L44.7451 15.3537L44.7205 14.4258L44.6631 13.5152L44.6263 12.9068L44.6087 12.5994V12.6019L44.6022 12.486L44.5899 12.2596L44.5772 12.0439L44.5622 11.8394L44.5485 11.6438L44.536 11.4571L44.5246 11.279L44.5143 11.1097L44.5052 10.9488L44.497 10.7968L44.4898 10.6528L44.4835 10.5174L44.4782 10.3901L44.4737 10.2709L44.47 10.1599L44.4681 10.0963L44.4755 10.0277L44.4843 9.93824L44.4921 9.8525L44.4989 9.77059L44.5046 9.69254L44.5094 9.61842L44.5132 9.54841L44.5161 9.48206L44.518 9.41912L44.5188 9.35984L44.5187 9.30351L44.5174 9.24906L44.5144 9.19577L44.5094 9.14078L44.5005 9.07962L44.4829 9.00219L44.4369 8.88399L44.2343 8.66833L42.741 8.98288L41.5121 10.2905L41.3371 10.6821L41.2877 10.8484L41.2639 10.9516L41.2482 11.0327L41.2356 11.1061L41.2242 11.1783L41.2136 11.2522L41.2032 11.3296L41.1927 11.4121L41.1824 11.4999L41.1719 11.594L41.1611 11.6948L41.1499 11.8028L41.1386 11.9178L41.1271 12.0407L41.1154 12.1711L41.1037 12.3094L41.0919 12.4559L41.08 12.6108L41.0681 12.7738L41.0561 12.946L41.0441 13.1265L41.032 13.3161L41.0201 13.5147L41.0082 13.7226L40.9964 13.94L40.9847 14.167L40.9767 14.4012L40.9705 14.6441L40.9679 14.76L40.9163 14.9516L40.8484 15.1823L40.7759 15.4074L40.6994 15.6255L40.6192 15.8349L40.5322 16.0416L40.4614 16.1923L40.4169 16.2825L40.3723 16.3692L40.3279 16.4519L40.284 16.53L40.2405 16.6041L40.1983 16.6731L40.1567 16.7375L40.1158 16.7971L40.0768 16.8516L40.0395 16.9015L40.0043 16.9467L39.9706 16.9881L39.9388 17.0255L39.9082 17.0597L39.8782 17.0915L39.8486 17.1203L39.8183 17.1481L39.7867 17.1754L39.7531 17.2024L39.7162 17.2298L39.6754 17.2578L39.6296 17.2868L39.578 17.3165L39.5205 17.3457L39.4566 17.3747L39.3855 17.4037L39.308 17.4318L39.2231 17.4589L39.1314 17.4842L39.0326 17.5074L38.9272 17.528L38.8159 17.5441L38.6984 17.5561L38.575 17.5642L38.4455 17.5678L38.3104 17.5668L38.1633 17.5604L38.078 17.5545L38.0921 17.5554L38.0759 17.554L38.0297 17.5486L37.9838 17.5415L37.9387 17.5319L37.8941 17.5203L37.8497 17.5069L37.8055 17.4914L37.762 17.4742L37.7185 17.4551L37.6755 17.4339L37.633 17.4108L37.5909 17.3857L37.5493 17.3587L37.5082 17.3296L37.4677 17.2986L37.4307 17.268L37.3742 17.2172L37.2977 17.1396L37.2249 17.0536L37.1559 16.9591L37.0904 16.8577L37.0282 16.7493L36.9695 16.6342L36.9143 16.5128L36.8626 16.3854L36.8146 16.2523L36.7778 16.1339L36.7887 16.1057L36.8602 15.9094L36.9275 15.7136L36.9939 15.5175L37.0563 15.3219L37.1145 15.1271L37.1686 14.9331L37.2184 14.7404L37.2642 14.5487L37.3057 14.3583L37.3429 14.1696L37.376 13.9822L37.4081 13.7949L37.4367 13.609L37.4609 13.4249L37.4716 13.3279C37.4717 13.3231 37.4719 13.3185 37.472 13.3137L37.4726 13.309L37.474 13.2789L37.4754 13.2486L37.4769 13.219L37.4785 13.1875L37.4802 13.1538L37.4822 13.1171L37.4842 13.0776L37.4874 13.0128L37.4919 12.9165L37.4964 12.8084L37.5011 12.6902L37.5057 12.5633L37.5102 12.4283L37.5143 12.2862L37.518 12.1384L37.523 11.9845L37.5285 11.8262L37.5353 11.5853L37.5413 11.2609L37.5424 11.0172L37.5413 10.8565L37.5389 10.7009L37.5345 10.5496L37.5272 10.4041L37.5168 10.2643L37.5037 10.1307L37.4873 10.0034L37.4657 9.88254L37.4433 9.7908L37.4246 9.72732L37.4049 9.66867L37.3814 9.60903L37.3528 9.54778L37.3163 9.4834L37.2675 9.41456L37.1982 9.3399L37.093 9.26014L36.9207 9.18352L36.7176 9.14632C36.6381 9.14015 36.5529 9.14266 36.4631 9.15365L36.4528 9.1541L35.7462 9.37557L34.7428 10.066L34.1574 10.7088L33.8782 11.128L33.729 11.4095L33.6355 11.6202L33.5683 11.7946L33.515 11.9508L33.4747 12.0961L33.4409 12.237L33.4109 12.377L33.3863 12.5171L33.3687 12.6573L33.3553 12.7993L33.3447 12.9444L33.3363 13.0927L33.3301 13.2446L33.3254 13.3998L33.3218 13.5592L33.3201 13.7221L33.3206 13.8875L33.3233 14.0561L33.3283 14.2275L33.3354 14.4013L33.345 14.5771L33.3547 14.7564L33.3663 14.9373L33.3806 15.1199L33.3973 15.3037L33.4275 15.5774L33.4759 15.9454L33.5174 16.2284L33.5492 16.4177L33.584 16.6025L33.6221 16.7863L33.6637 16.9685L33.7078 17.1497L33.7542 17.3293L33.8045 17.5069L33.8589 17.6813L33.9174 17.8527L33.9371 17.9054L33.9205 17.9419L33.8643 18.0599L33.8066 18.1751L33.748 18.2865L33.6885 18.3942L33.6278 18.498L33.5654 18.5971L33.5025 18.6923L33.44 18.7824L33.3778 18.8682L33.3164 18.9488L33.2553 19.0252L33.1947 19.0974L33.1346 19.1654L33.0749 19.2291L33.0147 19.2885L32.9546 19.3444L32.8938 19.3978L32.8317 19.4491L32.7682 19.4981L32.702 19.546L32.6325 19.5925L32.5589 19.6379L32.4808 19.6822L32.3974 19.7253L32.3089 19.7659L32.2148 19.8038L32.1146 19.8393L32.0086 19.8721L31.8966 19.9015L31.7787 19.9271L31.6549 19.9485L31.5252 19.9651L31.3902 19.9765L31.2498 19.9821L31.1045 19.9816L30.9542 19.9745L30.8002 19.9595L30.642 19.9367L30.4798 19.9064L30.3135 19.868L30.1388 19.8202L30.0432 19.791L30.0515 19.7934L30.0114 19.7803L29.9259 19.7503L29.8424 19.7177L29.7608 19.6831L29.6809 19.6465L29.6028 19.6077L29.5263 19.5668L29.4516 19.5239L29.3786 19.479L29.3075 19.4322L29.2378 19.3833L29.1699 19.3326L29.1036 19.2797L29.0388 19.225L28.9757 19.1685L28.9141 19.11L28.8542 19.0496L28.7964 18.9868L28.7403 18.9222L28.6857 18.8558L28.6325 18.7876L28.581 18.7178L28.531 18.6462L28.4837 18.5748L28.415 18.4639L28.3264 18.3074L28.2438 18.1447L28.1669 17.9759L28.0955 17.8011L28.0297 17.6207L27.9693 17.4349L27.914 17.2439L27.8663 17.0464L27.8249 16.8434L27.7885 16.636L27.7569 16.4244L27.73 16.209L27.7077 15.9902L27.6899 15.768L27.6819 15.5391L27.6804 15.3061L27.6828 15.0706L27.6892 14.8332L27.8809 14.4852L28.0966 14.1266L28.1176 13.8851L28.1418 13.6429L28.1689 13.4031L28.1821 13.0586L28.2068 12.5943L28.2409 12.1278L28.2718 11.7792L28.2946 11.5497L28.3188 11.3217L28.3446 11.0954L28.3716 10.8711L28.3997 10.6487L28.4289 10.4288L28.4589 10.2112L28.4894 9.99699L28.5205 9.78588L28.552 9.57782L28.5837 9.37405L28.5982 9.28196L28.6996 8.93299L28.805 8.56157L28.9061 8.19623L29.003 7.83724L29.0621 7.61193L30.1618 7.45867L32.0019 7.23667L33.8586 6.9797L35.7639 6.61847L37.2065 6.32136L38.1674 6.12716L39.1297 5.93581L40.0921 5.74814L41.0545 5.56422L42.0178 5.38432L42.9805 5.20907L43.9598 5.00575L44.953 4.77972L45.9597 4.53402L46.9704 4.2884L47.9835 4.04672L49.0001 3.80772L50.0207 3.57141L51.0434 3.34126L52.0698 3.11523L52.5826 3.00436C53.0862 2.94347 53.7376 2.43239 54.0375 1.86275C54.3373 1.2932 54.1721 0.880741 53.6685 0.94163V0.94163Z" fill="white"/>
<path fill-rule="evenodd" clip-rule="evenodd" d="M58.4202 1.20385L58.3225 1.33644L58.2484 1.41986L58.1979 1.46824L58.1676 1.49166L58.1529 1.49417V1.48093L58.1722 1.4474L58.1954 1.41745C58.2827 1.3436 58.3617 1.26438 58.4319 1.18266L58.4202 1.20385ZM58.0091 0.386455L58.0563 0.347755L58.0579 0.346655C58.0416 0.359955 58.0253 0.372555 58.0091 0.386455V0.386455ZM59.1704 0.163361C59.0566 -0.0433586 58.7532 -0.0485445 58.4112 0.117583C58.1995 0.12706 57.9245 0.249644 57.6613 0.47219L57.6305 0.487926L57.5526 0.53898L57.4691 0.601747L57.384 0.671846L57.2959 0.75482L57.1995 0.855051L57.0909 0.98282L56.9696 1.15261L56.8484 1.3773L56.7663 1.64527L56.7782 1.89258L56.8841 2.05031L57.027 2.1179L57.1638 2.13274L57.2828 2.12345L57.385 2.1036L57.4746 2.07919L57.5558 2.05138L57.6311 2.02223L57.7027 1.99085L57.7972 1.94552L57.9236 1.8781L58.0568 1.79897L58.1913 1.71206L58.3298 1.61487L58.4761 1.5032L58.5794 1.41799C59.0634 1.01107 59.3279 0.4493 59.1704 0.163361V0.163361Z" fill="white"/>
<path fill-rule="evenodd" clip-rule="evenodd" d="M22.1133 4.15028L22.1064 4.20705L22.0961 4.2616L22.0821 4.31363L22.0663 4.36254L22.0493 4.40832L22.0311 4.45106L22.0121 4.49076L21.9911 4.52769L21.9696 4.56193L21.9476 4.59349L21.9251 4.62318L21.902 4.65116L21.8782 4.67772L21.8528 4.70284L21.8262 4.72689L21.7981 4.75023L21.7685 4.77294L21.737 4.79521L21.7038 4.81684L21.6686 4.83777L21.637 4.85511L21.5828 4.88202L21.4976 4.91663L21.4078 4.94417L21.3143 4.96455L21.2154 4.97725L21.1838 4.97868L21.2397 4.9422L21.4311 4.79476L21.6027 4.64437L21.7562 4.49371L21.8952 4.34368L22.0218 4.19373L22.118 4.06766L22.1176 4.09073L22.1133 4.15028ZM18.6409 5.08526L18.6706 5.20122L18.7091 5.31433L18.7583 5.42359L18.8177 5.52928L18.8865 5.63255L18.9646 5.7334L19.0494 5.83426L19.1411 5.93521L19.1888 5.98814C19.2323 6.0982 19.4082 6.07737 19.5815 5.94164C19.7467 5.81235 19.8485 5.62638 19.8204 5.51381L19.8208 5.51425L19.8744 5.55547L19.9304 5.59276L19.9889 5.62611L20.0497 5.65561L20.1127 5.68128L20.1776 5.70309L20.2446 5.72115L20.3133 5.73546L20.3836 5.7461L20.4555 5.75307L20.5288 5.75638L20.6035 5.75611L20.6793 5.75227L20.7917 5.74002L20.9455 5.71168L21.1058 5.66885L21.2685 5.61136L21.4327 5.53992L21.5619 5.47384L21.6507 5.42297L21.7337 5.37075L21.8164 5.31442L21.8983 5.25398L21.9793 5.18942L22.0588 5.12075L22.1363 5.04842L22.2116 4.97278L22.2845 4.89418L22.354 4.81273L22.4197 4.72877L22.4814 4.64276L22.5385 4.55531L22.591 4.46662L22.6399 4.37694L22.6841 4.28645L22.7235 4.19534L22.7579 4.10378L22.7874 4.01178L22.8139 3.91888L22.8368 3.82491L22.8551 3.7304L22.8687 3.63518L22.874 3.58403C22.8742 3.58153 22.8743 3.57912 22.8744 3.5767L22.8782 3.52931L22.8847 3.4239L22.8841 3.31911L22.879 3.21753L22.8668 3.12106L22.8507 3.02745L22.8286 2.9383L22.8058 2.87133L22.8059 2.86284L22.7762 2.76332L22.7477 2.72425C22.7899 2.587 22.7911 2.46513 22.7469 2.37572L22.7295 2.36821L22.6759 2.32082L22.5928 2.26467L22.4585 2.22497L22.2381 2.24214L22.2262 2.24697L22.1717 2.22176L22.0909 2.19019L22.0068 2.16301L21.9185 2.14155L21.8271 2.12457L21.7325 2.11214L21.6349 2.10436L21.5342 2.10132L21.4289 2.10624L21.3203 2.11661L21.2088 2.13243L21.0941 2.15389L20.9759 2.18143L20.8532 2.21925L20.7273 2.26414L20.5979 2.31635L20.4652 2.37724L20.3291 2.44886L20.1902 2.52942L20.0492 2.62125L19.9068 2.72309L19.7643 2.83521L19.6237 2.95815L19.4857 3.08959L19.3532 3.22961L19.228 3.37651L19.1122 3.52779L19.0066 3.68194L18.9147 3.83671L18.8344 3.9905L18.7659 4.14205L18.7102 4.29021L18.6705 4.43362L18.6415 4.57302L18.6227 4.70848L18.619 4.83785L18.6255 4.96321L18.6409 5.08526Z" fill="white"/>
</g>
<defs>
<clipPath id="clip0_0_29">
<rect width="60" height="38" fill="white"/>
</clipPath>
</defs>
</svg>
