<svg width="66" height="42" viewBox="0 0 66 42" fill="none" xmlns="http://www.w3.org/2000/svg">
<g clip-path="url(#clip0_0_52)">
<path fill-rule="evenodd" clip-rule="evenodd" d="M28.8099 5.86737L28.8113 5.87787L28.8123 5.89657L28.8099 5.87627V5.86737ZM37.4258 13.8773L37.4017 13.838L37.3907 13.8122L37.3879 13.798L37.3903 13.7934L37.3964 13.7976L37.4032 13.8036L37.4186 13.8295L37.4465 13.8883L37.4576 13.915L37.4258 13.8773ZM45.6448 12.4402L45.6478 12.4475L45.6515 12.4649L45.6554 12.4911L45.6594 12.5251L45.6608 12.5397L45.6561 12.5269L45.6452 12.4714L45.6433 12.4464L45.6448 12.4402ZM44.8767 28.3836L44.8253 28.6859L44.7703 28.9867L44.7117 29.2849L44.6493 29.5814L44.583 29.8756L44.5129 30.1682L44.4388 30.458L44.3607 30.7459L44.2785 31.0314L44.1921 31.3148L44.1017 31.5953L44.007 31.8739L43.9081 32.1497L43.8049 32.4231L43.6977 32.6932L43.5859 32.9615L43.4699 33.2268L43.3496 33.4893L43.2248 33.7494L43.0955 34.0072L42.962 34.2618L42.824 34.5139L42.6813 34.7638L42.5341 35.0112L42.382 35.2564L42.2252 35.4996L42.0632 35.7411L42.0083 35.8205L42.0011 35.8309L42.0022 35.8287L42.0029 35.827L41.9942 35.8381L41.9773 35.8594L41.9532 35.8898L41.9233 35.9269L41.8881 35.97L41.848 36.0186L41.8035 36.0716L41.7548 36.1289L41.7026 36.1898L41.6468 36.2539L41.5878 36.3209L41.5264 36.3897L41.4621 36.4608L41.3955 36.5336L41.3265 36.6081L41.214 36.7274L41.0599 36.8869L40.9069 37.0403L40.7512 37.1914L40.5953 37.3375L40.4412 37.4764L40.2905 37.6064L40.1468 37.7242L40.0118 37.8287L39.8882 37.9179L39.7789 37.9906L39.7264 38.0215L39.7053 38.0326L39.6705 38.0514L39.6403 38.0665L39.6147 38.078L39.5905 38.1074L39.5678 38.1392L39.5462 38.1692L39.5251 38.1977L39.5047 38.2241L39.4854 38.2472L39.4646 38.2693L39.4426 38.2905L39.4204 38.3074L39.3973 38.3199L39.3715 38.331L39.3424 38.3401L39.3099 38.3468L39.2768 38.3463L39.2416 38.3406L39.2031 38.3303L39.1615 38.3148L39.1174 38.2931L39.0708 38.2647L39.057 38.2538L39.0696 38.2669L39.0126 38.2116L38.9192 38.1144L38.8386 38.0206L38.7659 37.9255L38.7019 37.8275L38.6492 37.7247L38.6035 37.621L38.5643 37.5162L38.5316 37.411L38.5049 37.3046L38.486 37.1965L38.4746 37.0863L38.4685 36.9756L38.4681 36.8642L38.4736 36.7517L38.4839 36.6382L38.4992 36.5237L38.5191 36.4088L38.5436 36.2927L38.5725 36.1752L38.6059 36.0563L38.6438 35.9362L38.686 35.8143L38.7326 35.6907L38.7837 35.5651L38.8392 35.4375L38.8992 35.3076L38.9633 35.1757L39.0321 35.0414L39.1053 34.9048L39.1834 34.7654L39.266 34.6236L39.3529 34.4798L39.4448 34.3331L39.5411 34.184L39.6419 34.0327L39.7477 33.8784L39.8576 33.7224L39.9725 33.5634L40.0914 33.4027L40.2147 33.2397L40.3425 33.0746L40.4745 32.9075L40.6109 32.7382L40.7511 32.5671L40.895 32.3945L41.043 32.22L41.1949 32.0438L41.4354 31.7701L41.7663 31.4035L42.1043 31.0393L42.4547 30.6712L42.8167 30.2997L43.1856 29.9227L43.5638 29.5432L43.9506 29.1625L44.3454 28.7807L44.7473 28.3984L44.8964 28.258L44.8767 28.3836ZM23.613 22.7211L23.5855 22.7252L23.5563 22.7278L23.5258 22.7289L23.4943 22.7284L23.481 22.7274L23.5378 22.7149L23.5892 22.708L23.6306 22.7066L23.635 22.7115L23.5951 22.7165L23.6371 22.7136L23.6391 22.7159L23.613 22.7211ZM21.0674 15.2013L21.0635 15.2154L21.0666 15.1996L21.0693 15.1912L21.0674 15.2013ZM59.3178 1.04083L58.8003 1.04972L57.768 1.07453L56.7343 1.1105L55.7007 1.15448L54.6654 1.20972L53.6285 1.27554L52.5912 1.34985L51.5516 1.43642L50.4991 1.55629L49.4332 1.71224L48.3508 1.90929L47.2708 2.11109L46.1914 2.31733L45.1135 2.52763L44.037 2.74158L42.96 2.95929L41.3484 3.29124L39.1828 3.79069L36.9667 4.42158L34.7348 5.10188L32.7497 5.68139L32.7721 5.56211L32.7998 5.40913L32.8258 5.26L32.8504 5.11335L32.8733 4.96976L32.8947 4.82923L32.9143 4.69167L32.9323 4.55746L32.9486 4.42603L32.963 4.29776L32.9758 4.17255L32.9866 4.0503L32.9955 3.93092L33.0025 3.81451L33.0073 3.70047L33.0099 3.58919L33.0105 3.52723C33.0106 3.52278 33.0106 3.51834 33.0105 3.51389L33.0103 3.4794L33.0089 3.39738L33.0058 3.31318L33.0002 3.22977L32.9911 3.1436L32.9761 3.04922L32.9484 2.93656L32.8895 2.78902L32.7337 2.58455L32.2143 2.38503L30.8043 2.82667L29.6029 3.85315L29.1558 4.4623L28.9766 4.78644L28.8848 4.98745L28.8274 5.13232L28.7855 5.24982L28.7522 5.35181L28.7232 5.44619L28.697 5.5375L28.6724 5.62693L28.6486 5.71686L28.6255 5.80788L28.6026 5.90067L28.58 5.99495L28.5574 6.0916L28.524 6.23865L28.4787 6.4447L28.4325 6.66132L28.3923 6.8561L28.1554 6.91767L25.9984 7.43669L24.9195 7.68987C24.3672 7.80718 23.7052 8.37808 23.4409 8.9649C23.1767 9.55181 23.4103 9.93248 23.9626 9.81517L25.0169 9.61545L27.1246 9.21788L27.9766 9.06965L27.9449 9.25208L27.9078 9.46781L27.8729 9.67346L27.8482 9.82081L27.8327 9.91508L27.8178 10.0053L27.8036 10.0922L27.7903 10.1754L27.7775 10.2549L27.7715 10.2939V10.2935L27.7588 10.3731L27.7327 10.5356L27.7048 10.7052L27.6752 10.8843L27.644 11.0719L27.6112 11.2681L27.5774 11.4716L27.5427 11.6821L27.5072 11.9L27.4903 12.0047L27.4429 12.1644L27.3219 12.5631L27.1971 12.9658L27.0688 13.3714L26.9369 13.7797L26.8019 14.1892L26.665 14.5963L26.4528 15.2117L26.2332 15.8295L26.0849 16.236L25.9345 16.6401L25.7823 17.0402L25.6284 17.4363L25.4732 17.827L25.3169 18.2119L25.1597 18.5899L25.0019 18.9603L24.844 19.3218L24.6861 19.6741L24.5288 20.0156L24.3804 20.3444L24.2334 20.661L24.088 20.9642L23.9451 21.2524L23.8053 21.5249L23.6695 21.7794L23.539 22.0151L23.4091 22.2389L23.3143 22.3956L23.2579 22.4864L23.2043 22.5706L23.1671 22.6278L23.1669 22.6277L23.128 22.6044L23.089 22.5785L23.05 22.55L23.011 22.519L22.9721 22.4855L22.9335 22.4495L22.8952 22.4107L22.8574 22.3695L22.8224 22.3295L22.7692 22.2628L22.6973 22.1604L22.6281 22.0485L22.562 21.9275L22.4992 21.7977L22.44 21.6601L22.3844 21.5144L22.3324 21.3615L22.2843 21.2016L22.2402 21.0357L22.1999 20.8637L22.1635 20.6863L22.1479 20.599L22.1773 20.5156L22.2771 20.2118L22.3987 19.8071L22.5095 19.4006L22.6088 18.9988L22.7013 18.6008L22.7862 18.2075L22.865 17.8189L22.9389 17.4354L23.0432 16.8725L23.1441 16.3216L23.214 15.9642L23.2487 15.7913L23.2444 15.8099L23.2512 15.7784L23.2571 15.7546L23.2636 15.7311L23.275 15.6944L23.291 15.6459L23.3114 15.5874L23.3506 15.4805L23.4118 15.3205L23.4799 15.1463L23.5534 14.9582L23.6119 14.8082L23.6522 14.7026L23.6909 14.5978L23.7289 14.491L23.7657 14.3817L23.8006 14.2701L23.8334 14.1545L23.8629 14.0342L23.8879 13.9073L23.9057 13.7717L23.912 13.6258L23.8985 13.4686L23.8618 13.3284L23.8143 13.2286L23.7571 13.1502L23.681 13.0796L23.5848 13.0212L23.4683 12.9793L23.3339 12.957L23.1864 12.9556L23.0309 12.9742L22.8735 13.0099L22.7185 13.0593L22.5698 13.1182L22.4708 13.163C22.4408 13.1772 22.4107 13.1923 22.3804 13.2082L22.335 13.232L22.0524 13.4L21.7151 13.6424L21.4062 13.908L21.1364 14.1791L20.9052 14.4451L20.709 14.7001L20.5404 14.9447L20.3925 15.1802L20.2612 15.4093L20.143 15.6339L20.0353 15.856L19.936 16.0773L19.8423 16.2995L19.754 16.5228L19.6696 16.7485L19.588 16.9774L19.5096 17.209L19.4352 17.4434L19.364 17.6807L19.2958 17.9211L19.2314 18.1641L19.1705 18.4095L19.113 18.6573L19.0589 18.9069L19.0085 19.1583L18.9618 19.4112L18.9188 19.6654L18.8797 19.9203L18.8446 20.1754L18.8134 20.4309L18.7864 20.686L18.7637 20.9406L18.7454 21.1943L18.7314 21.4465L18.7222 21.6973L18.7177 21.9461L18.7182 22.1923L18.721 22.315L18.6761 22.3936L18.6976 22.3544L18.673 22.3933L18.5913 22.5201L18.5029 22.6474L18.4079 22.7752L18.3056 22.9042L18.1959 23.0343L18.0784 23.1659L17.9533 23.2988L17.8205 23.4327L17.6796 23.5679L17.5305 23.7042L17.3736 23.8405L17.209 23.9767L17.0364 24.1133L16.8571 24.249L16.6701 24.3845L16.4769 24.5186L16.2767 24.6516L16.0705 24.7825L15.8586 24.9113L15.6408 25.0378L15.418 25.1612L15.1901 25.2816L14.9582 25.3985L14.7216 25.5117L14.4813 25.6208L14.2358 25.7342L13.9865 25.8441L13.7336 25.9493L13.4777 26.0495L13.2188 26.1446L12.958 26.2339L12.6945 26.3176L12.4296 26.395L12.1633 26.466L11.8957 26.5306L11.6276 26.588L11.3588 26.6384L11.0904 26.6813L10.8215 26.7167L10.5536 26.744L10.2859 26.7633L10.0197 26.7741L9.75439 26.7764L9.4909 26.7696L9.22952 26.7541L8.96198 26.7322L8.76178 26.7091L8.63287 26.691L8.50435 26.6703L8.37645 26.6471L8.24976 26.6214L8.12337 26.5931L7.99799 26.5621L7.87352 26.5285L7.74976 26.4922L7.62711 26.4532L7.50528 26.4114L7.38445 26.3667L7.26473 26.3194L7.14603 26.2691L7.02854 26.2159L6.91196 26.1598L6.79669 26.1007L6.68264 26.0385L6.5698 25.9734L6.45817 25.9051L6.34796 25.8339L6.23906 25.7593L6.13158 25.6816L6.02551 25.6007L5.92097 25.5166L5.81783 25.4291L5.71642 25.3384L5.61642 25.2441L5.51794 25.1465L5.42138 25.0455L5.32623 24.9408L5.23311 24.8328L5.1417 24.7212L5.04959 24.6025L5.00429 24.5419L4.96597 24.4893L4.88205 24.3671L4.80338 24.2437L4.73018 24.1194L4.66203 23.9938L4.59894 23.8671L4.5409 23.7393L4.48772 23.6107L4.43928 23.4813L4.3956 23.351L4.35647 23.2196L4.32189 23.088L4.29166 22.9553L4.26578 22.8219L4.24414 22.6879L4.22655 22.5534L4.2131 22.4184L4.20359 22.2825L4.19793 22.1466L4.19611 22.0099L4.19803 21.8727L4.20359 21.735L4.21269 21.5971L4.22543 21.4583L4.24151 21.3197L4.26092 21.1803L4.28377 21.0407L4.30976 20.9008L4.33908 20.7603L4.37144 20.6195L4.40693 20.4784L4.44545 20.337L4.48711 20.1952L4.5317 20.0528L4.57922 19.9102L4.62947 19.7676L4.68276 19.6242L4.73433 19.4915L4.81865 19.286L4.94625 18.9977L5.08447 18.7082L5.23311 18.4179L5.39175 18.127L5.56 17.836L5.73785 17.5445L5.9244 17.2538L6.11985 16.9634L6.32359 16.6739L6.53542 16.3856L6.75463 16.0992L6.98091 15.8147L7.21397 15.5325L7.453 15.2536L7.69779 14.9779L7.94774 14.7061L8.20213 14.4388L8.46078 14.1761L8.72286 13.9185L8.98827 13.6664L9.25561 13.4207L9.52477 13.1817L9.79494 12.9497L10.0661 12.7249L10.3371 12.508L10.6072 12.2996L10.8765 12.0994L11.1434 11.9087L11.4081 11.7271L11.6692 11.5556L11.927 11.3938L12.1908 11.2364L12.3885 11.1239L12.5117 11.0563L12.6338 10.9912L12.7541 10.929L12.8729 10.8696L12.9906 10.8126L13.1062 10.7586L13.2203 10.7075L13.3324 10.6591L13.443 10.6134L13.5517 10.5705L13.6587 10.5304L13.764 10.493L13.8672 10.4583L13.9688 10.4264L14.0679 10.3974L14.1678 10.3659L14.2865 10.2911L14.4052 10.2195L14.5239 10.1511L14.6429 10.0859L14.7615 10.0243L14.88 9.96618L15.0084 9.91123L15.0875 9.88455C15.8727 9.83919 16.9398 9.05226 17.4707 8.12687C18.0017 7.20149 17.7956 6.48808 17.0102 6.53344L16.9588 6.51427L16.8226 6.48057L16.6722 6.45211L16.5176 6.42839L16.3592 6.40922L16.1965 6.39479L16.0298 6.38511L15.8594 6.37997L15.6666 6.42602L15.4694 6.48205L15.2713 6.54273L15.0717 6.60815L14.8709 6.67802L14.6689 6.75243L14.4657 6.8313L14.2616 6.91431L14.0566 7.00157L13.8508 7.09278L13.6444 7.18795L13.4378 7.28687L13.2302 7.38965L13.0221 7.49628L12.814 7.60617L12.6051 7.71992L12.3021 7.89088L11.8934 8.13221L11.4741 8.39221L11.0547 8.66467L10.6364 8.94869L10.2188 9.24437L9.80333 9.55042L9.38918 9.86735L8.97766 10.1942L8.56896 10.5305L8.1631 10.8763L7.76088 11.2312L7.36271 11.5945L6.96939 11.9657L6.58072 12.345L6.1974 12.7318L5.81975 13.1259L5.44857 13.5267L5.08437 13.9339L4.72725 14.3476L4.37831 14.7667L4.03777 15.1915L3.70603 15.6214L3.38419 16.0557L3.07246 16.4945L2.77156 16.937L2.48208 17.3834L2.20513 17.8319L1.94083 18.2835L1.69027 18.7366L1.45408 19.1912L1.23295 19.6464L1.02759 20.102L0.880071 20.4536L0.785937 20.6914L0.7007 20.9181L0.61971 21.1447L0.543472 21.3704L0.471886 21.5954L0.40495 21.82L0.342767 22.0438L0.285639 22.2665L0.233364 22.4885L0.186247 22.7091L0.144184 22.9288L0.10738 23.1471L0.0759344 23.3639L0.0497467 23.5796L0.0290189 23.7931L0.0137511 24.0056L0.00404444 24.216L0 24.4247L0.00151667 24.6317L0.00869556 24.8368L0.0217389 25.0395L0.0405456 25.2403L0.0651156 25.4391L0.0956511 25.6353L0.132051 25.8293L0.174518 26.021L0.22295 26.2106L0.277348 26.3972L0.337913 26.5815L0.404546 26.7631L0.477346 26.9421L0.556313 27.1183L0.641449 27.2918L0.732752 27.4625L0.830527 27.6306L0.934368 27.7955L1.04458 27.9576L1.10565 28.0425C1.10767 28.0452 1.10969 28.048 1.11172 28.0507L1.16055 28.1163L1.26773 28.2548L1.38007 28.3926L1.49493 28.5265L1.61201 28.6561L1.73173 28.782L1.85367 28.9037L1.97804 29.0216L2.10483 29.1357L2.23375 29.2458L2.36499 29.3521L2.49835 29.4545L2.63384 29.553L2.77146 29.6478L2.91119 29.7389L3.05275 29.826L3.19653 29.9097L3.34213 29.9896L3.48965 30.0658L3.63889 30.1383L3.79025 30.2073L3.94323 30.2727L4.09793 30.3345L4.25415 30.3928L4.41208 30.4475L4.57174 30.4988L4.73281 30.5467L4.8956 30.5911L5.0596 30.6322L5.22502 30.6698L5.39215 30.7042L5.5602 30.7351L5.72966 30.7629L5.90054 30.7873L6.15352 30.8174L6.49629 30.8469L6.85149 30.8609L7.21003 30.8624L7.57181 30.8518L7.93702 30.8295L8.30466 30.7956L8.67503 30.7503L9.04692 30.6941L9.42093 30.6271L9.79585 30.5494L10.1721 30.4615L10.5488 30.3636L10.926 30.2557L11.3033 30.1382L11.6801 30.0114L12.0568 29.8753L12.4323 29.7303L12.8069 29.5765L13.18 29.4143L13.5516 29.2435L13.9213 29.0636L14.2899 28.8674L14.6549 28.6638L15.0171 28.4526L15.3751 28.2346L15.7291 28.0094L16.0788 27.7775L16.424 27.5389L16.7641 27.2939L17.0988 27.0426L17.4284 26.7848L17.7516 26.5213L18.069 26.2514L18.3792 25.9762L18.6827 25.6948L18.9789 25.4084L19.2669 25.1173L19.2904 25.0925L19.3387 25.1865L19.4141 25.3156L19.4685 25.4004L19.5229 25.4794L19.5798 25.5559L19.6393 25.6302L19.7015 25.7019L19.7664 25.7711L19.8345 25.8373L19.9055 25.9011L19.9797 25.9617L20.0571 26.0195L20.1381 26.0741L20.2222 26.1253L20.3103 26.1731L20.4021 26.2173L20.4979 26.2577L20.5977 26.2942L20.702 26.3264L20.8103 26.3541L20.9233 26.3771L21.0408 26.3952L21.1629 26.408L21.29 26.4155L21.4218 26.4171L21.5039 26.4151C21.5179 26.4144 21.5318 26.4134 21.546 26.4122L21.5832 26.4106L21.7428 26.3938L21.9406 26.3594L22.1496 26.3083L22.3675 26.24L22.5924 26.1546L22.8221 26.0525L23.0538 25.9349L23.2847 25.8037L23.5121 25.6611L23.7342 25.5091L23.9488 25.3503L24.1555 25.1861L24.3532 25.0187L24.5426 24.8487L24.7231 24.6778L24.8953 24.5065L25.0604 24.3344L25.218 24.1632L25.3697 23.9917L25.5157 23.8202L25.657 23.6486L25.7936 23.4771L25.9252 23.3049L26.0524 23.1317L26.1761 22.9585L26.2971 22.7846L26.4154 22.6098L26.5831 22.3548L26.8038 22.0055L27.0243 21.6417L27.2395 21.2718L27.4504 20.8959L27.6576 20.5133L27.826 20.1923L27.8684 20.3652L27.9361 20.6126L28.01 20.8558L28.0889 21.0953L28.172 21.3316L28.2622 21.5625L28.3595 21.788L28.4644 22.0074L28.5769 22.2207L28.6977 22.4273L28.8264 22.6268L28.9302 22.774L29.0025 22.8702L29.0758 22.9625L29.1513 23.0526L29.229 23.1406L29.309 23.2266L29.3915 23.3105L29.4762 23.392L29.5627 23.472L29.6515 23.5498L29.743 23.6252L29.8369 23.698L29.9334 23.7685L30.0326 23.8366L30.1341 23.9018L30.2386 23.9646L30.3455 24.0246L30.4552 24.0819L30.5674 24.1365L30.6826 24.1881L30.8005 24.2369L30.9211 24.2826L31.0446 24.3255L31.1706 24.3656L31.2385 24.3857C31.2415 24.3866 31.2445 24.3875 31.2477 24.3884L31.3551 24.4179L31.5845 24.4743L31.8181 24.5222L32.0513 24.5603L32.284 24.5886L32.5158 24.6078L32.7469 24.6183L32.9781 24.619L33.2093 24.6099L33.4414 24.5909L33.6739 24.5618L33.9074 24.5226L34.142 24.4729L34.3774 24.4127L34.6142 24.3417L34.8514 24.2601L35.0898 24.1674L35.3284 24.0645L35.5672 23.9518L35.8059 23.8279L36.0436 23.6932L36.2799 23.5481L36.5137 23.3931L36.7447 23.2288L36.9709 23.0564L37.1925 22.8763L37.4087 22.6892L37.6182 22.4967L37.8222 22.3001L38.0195 22.0996L38.2097 21.8956L38.3928 21.6885L38.5503 21.5012L38.6823 21.6196L38.7923 21.7073L38.8699 21.7636L38.9467 21.8148L39.026 21.8634L39.1076 21.9094L39.1917 21.9526L39.2784 21.993L39.3678 22.0304L39.4598 22.0646L39.5549 22.0958L39.6523 22.1235L39.7529 22.1479L39.8565 22.1687L39.9627 22.1858L40.0715 22.2L40.1834 22.2103L40.2482 22.2146C40.2533 22.215 40.2585 22.2153 40.2638 22.2155L40.359 22.219L40.5702 22.2221L40.787 22.2181L41.0028 22.2068L41.2178 22.1878L41.4324 22.1612L41.6465 22.1273L41.86 22.0866L42.0738 22.0376L42.2886 21.98L42.5039 21.9135L42.7206 21.8377L42.9376 21.7527L43.1561 21.6578L43.3748 21.5534L43.5939 21.4402L43.8126 21.317L44.0306 21.184L44.2467 21.0417L44.4602 20.8907L44.6697 20.7318L44.8745 20.5659L45.0742 20.3935L45.2674 20.2173L45.2733 20.2116L45.2833 20.8405L45.2905 21.5113L45.2929 22.177L45.2897 22.8384L45.2798 23.4947L45.2623 24.1461L45.254 24.3519L45.2211 24.3814L44.7564 24.8027L44.2906 25.2301L43.8253 25.6625L43.3608 26.1003L42.9002 26.5462L42.4443 26.9971L41.9916 27.4523L41.5431 27.9114L41.1002 28.3738L40.6637 28.8397L40.2379 29.3112L39.8202 29.7852L39.4113 30.2614L39.0185 30.7323L38.7324 31.0843L38.5415 31.324L38.3535 31.5642L38.1684 31.8049L37.9868 32.0456L37.809 32.2866L37.6346 32.528L37.4637 32.7697L37.2967 33.0116L37.1336 33.2537L36.975 33.4955L36.8204 33.7378L36.6708 33.9795L36.5254 34.2217L36.3852 34.4633L36.2502 34.7048L36.1202 34.9462L35.9963 35.1866L35.8781 35.4265L35.7658 35.6659L35.66 35.9042L35.5607 36.1415L35.4685 36.3771L35.3834 36.6114L35.3057 36.8439L35.2356 37.0745L35.1734 37.3026L35.1193 37.5286L35.0735 37.7514L35.0362 37.9712L35.0076 38.1879L34.9878 38.4011L34.9769 38.6101L34.975 38.8151L34.9823 39.0161L34.9981 39.2132L35.0228 39.4058L35.0567 39.5935L35.0983 39.7778L35.1473 39.9584L35.2058 40.1343L35.2734 40.3048L35.3504 40.4706L35.4365 40.6313L35.5277 40.7905L35.6268 40.9465L35.7347 41.0973L35.847 41.2381L35.8992 41.2994C35.9033 41.3038 35.9076 41.3082 35.9118 41.3124L35.9725 41.3757L36.0799 41.4822L36.1961 41.5779L36.3213 41.6628L36.4555 41.7365L36.5988 41.7985L36.7495 41.8501L36.9062 41.8937L37.0712 41.925L37.244 41.944L37.4242 41.9506L37.6093 41.9482L37.7986 41.9371L37.9926 41.9145L38.1916 41.8809L38.3925 41.8391L38.5957 41.7882L38.8009 41.7283L39.0074 41.6599L39.2143 41.5792L39.4217 41.4716L39.6262 41.3587L39.8272 41.2411L40.0429 41.1078L40.3471 40.9085L40.7143 40.6507L41.0669 40.3859L41.4051 40.1166L41.7299 39.8445L42.0407 39.572L42.3391 39.2996L42.6246 39.0291L42.8971 38.7621L43.1571 38.4992L43.3985 38.2482L43.57 38.0657L43.6837 37.9424L43.7944 37.8211L43.9016 37.702L44.0057 37.585L44.1058 37.4709L44.2025 37.3593L44.296 37.2502L44.386 37.1437L44.4727 37.0396L44.5561 36.9382L44.6367 36.8389L44.7144 36.7415L44.7895 36.6459L44.8632 36.5503L44.936 36.4537L45.0092 36.3542L45.0733 36.2645L45.0879 36.2436C45.0956 36.2327 45.1031 36.2217 45.1107 36.2107L45.2483 36.0098L45.4938 35.6408L45.7298 35.272L45.9561 34.9038L46.1731 34.5364L46.3807 34.1699L46.5792 33.8043L46.7688 33.4397L46.9495 33.0768L47.1219 32.715L47.286 32.3541L47.4421 31.9944L47.5904 31.6365L47.7313 31.2789L47.8647 30.9232L47.9911 30.5685L48.1105 30.2152L48.2234 29.8624L48.3299 29.5111L48.4302 29.1606L48.5246 28.811L48.6133 28.462L48.6963 28.1144L48.7741 27.767L48.8467 27.4205L48.9143 27.0744L48.9771 26.7294L49.0354 26.3847L49.0892 26.0403L49.1389 25.6962L49.1844 25.3532L49.226 25.01L49.2641 24.6672L49.2986 24.3211L49.2997 24.31L49.3067 24.3039L49.7126 23.9595L50.0117 23.7073L50.209 23.5416L50.4061 23.3765L50.6017 23.2134L50.7949 23.0524L50.9863 22.8935L51.176 22.7364L51.3632 22.5818L51.5479 22.4296L51.7301 22.2796L51.9103 22.1316L52.0875 21.9863L52.262 21.8435L52.4337 21.7032L52.6022 21.5656L52.768 21.4304L52.9306 21.298L53.0899 21.1681L53.246 21.041L53.3991 20.9163L53.548 20.7951L53.6938 20.6762L53.8359 20.5604L53.9744 20.4472L54.1094 20.3368L54.2408 20.2292L54.3678 20.1247L54.4915 20.0229L54.6117 19.9234L54.7281 19.8268L54.841 19.7325L54.9506 19.6405L55.0569 19.5505L55.1607 19.4619L55.2618 19.3747L55.3611 19.2881L55.4178 19.2381C56.5013 18.2812 57.0463 17.0143 56.6351 16.4082C56.2239 15.8022 55.0122 16.0866 53.9288 17.0434L53.9145 17.0563L53.8629 17.1013L53.8019 17.1541L53.7324 17.2136L53.6545 17.2796L53.569 17.3515L53.4766 17.4287L53.3772 17.5113L53.2717 17.5985L53.1599 17.6907L53.042 17.7876L52.9189 17.8885L52.7904 17.9935L52.6565 18.1029L52.5176 18.2162L52.374 18.3332L52.2253 18.4543L52.0728 18.5785L51.9155 18.7066L51.754 18.8381L51.5885 18.9731L51.419 19.1113L51.2454 19.2529L51.0685 19.3976L50.8879 19.5454L50.704 19.6962L50.517 19.8497L50.3265 20.0064L50.1328 20.1661L49.9366 20.3283L49.7377 20.4931L49.5357 20.6607L49.4816 20.7057L49.4863 20.3905L49.4895 19.7075L49.4869 19.0236L49.4796 18.34L49.4687 17.6553L49.4552 16.97L49.428 15.9444L49.3645 14.938L49.3238 14.2655L49.3044 13.9257V13.9285L49.2971 13.8004L49.2836 13.5502L49.2695 13.3117L49.2529 13.0857L49.2378 12.8695L49.224 12.6632L49.2114 12.4663L49.2001 12.2792L49.1899 12.1014L49.1808 11.9334L49.173 11.7743L49.166 11.6245L49.1601 11.4839L49.1552 11.3521L49.151 11.2294L49.149 11.1592L49.1571 11.0833L49.1669 10.9845L49.1755 10.8897L49.183 10.7992L49.1893 10.7129L49.1946 10.631L49.1988 10.5536L49.202 10.4803L49.2041 10.4107L49.205 10.3452L49.2049 10.2829L49.2034 10.2227L49.2002 10.1638L49.1946 10.103L49.1848 10.0355L49.1653 9.94987L49.1144 9.81923L48.8906 9.58086L47.24 9.92852L45.8818 11.3738L45.6884 11.8067L45.6338 11.9904L45.6075 12.1045L45.5901 12.1942L45.5761 12.2753L45.5636 12.355L45.5519 12.4368L45.5403 12.5222L45.5288 12.6135L45.5174 12.7105L45.5058 12.8145L45.4938 12.9259L45.4815 13.0453L45.469 13.1724L45.4562 13.3082L45.4434 13.4524L45.4304 13.6053L45.4174 13.7671L45.4042 13.9383L45.391 14.1185L45.3778 14.3088L45.3645 14.5083L45.3512 14.7179L45.338 14.9374L45.3249 15.1672L45.3118 15.4074L45.2989 15.6583L45.29 15.9172L45.2832 16.1856L45.2803 16.3137L45.2233 16.5256L45.1482 16.7806L45.0682 17.0293L44.9835 17.2703L44.895 17.5018L44.7987 17.7302L44.7205 17.8969L44.6713 17.9966L44.6221 18.0923L44.5729 18.1837L44.5244 18.2701L44.4764 18.3519L44.4297 18.4282L44.3837 18.4994L44.3385 18.5653L44.2954 18.6256L44.2542 18.6807L44.2153 18.7306L44.1781 18.7764L44.1429 18.8177L44.1091 18.8555L44.076 18.8907L44.0432 18.9226L44.0097 18.9533L43.9747 18.9834L43.9376 19.0133L43.8969 19.0435L43.8518 19.0745L43.8011 19.1066L43.7441 19.1394L43.6805 19.1717L43.6099 19.2037L43.5314 19.2357L43.4457 19.2669L43.3518 19.2968L43.2505 19.3248L43.1413 19.3504L43.0248 19.3731L42.9017 19.3909L42.7719 19.4042L42.6355 19.4131L42.4925 19.4172L42.3431 19.416L42.1805 19.409L42.0862 19.4024L42.1018 19.4034L42.0839 19.4018L42.0328 19.3959L41.9821 19.3881L41.9323 19.3774L41.883 19.3646L41.8339 19.3498L41.785 19.3327L41.7369 19.3137L41.6889 19.2925L41.6414 19.2691L41.5944 19.2436L41.5479 19.2159L41.5019 19.186L41.4565 19.1539L41.4117 19.1196L41.3707 19.0858L41.3083 19.0296L41.2238 18.9439L41.1433 18.8488L41.0671 18.7444L40.9947 18.6323L40.9259 18.5124L40.861 18.3852L40.8001 18.251L40.7429 18.1102L40.6898 17.9632L40.6492 17.8323L40.6612 17.8011L40.7402 17.5842L40.8146 17.3678L40.888 17.151L40.957 16.9348L41.0213 16.7195L41.081 16.5051L41.1361 16.2921L41.1867 16.0802L41.2326 15.8698L41.2738 15.6612L41.3104 15.4541L41.3457 15.2471L41.3774 15.0417L41.4042 14.8382L41.416 14.731C41.4161 14.7256 41.4163 14.7205 41.4164 14.7152L41.417 14.71L41.4187 14.6768L41.4202 14.6433L41.4218 14.6106L41.4236 14.5757L41.4255 14.5384L41.4277 14.4979L41.4299 14.4542L41.4334 14.3827L41.4384 14.2762L41.4434 14.1567L41.4486 14.026L41.4536 13.8858L41.4586 13.7366L41.4631 13.5796L41.4673 13.4162L41.4727 13.2461L41.4788 13.0711L41.4864 12.8049L41.493 12.4464L41.4942 12.177L41.4931 11.9994L41.4903 11.8274L41.4855 11.6601L41.4774 11.4993L41.466 11.3449L41.4514 11.1972L41.4333 11.0565L41.4095 10.9229L41.3847 10.8215L41.3641 10.7513L41.3423 10.6865L41.3163 10.6206L41.2847 10.5529L41.2443 10.4817L41.1904 10.4056L41.1138 10.3231L40.9975 10.235L40.8071 10.1503L40.5827 10.1092C40.4947 10.1024 40.4006 10.1051 40.3013 10.1173L40.2899 10.1178L39.509 10.3626L38.4 11.1257L37.7529 11.8361L37.4443 12.2995L37.2795 12.6106L37.1761 12.8434L37.1018 13.0362L37.0429 13.2089L36.9984 13.3695L36.961 13.5252L36.9278 13.68L36.9006 13.8348L36.8812 13.9898L36.8664 14.1467L36.8547 14.307L36.8454 14.4709L36.8385 14.6388L36.8334 14.8104L36.8293 14.9865L36.8275 15.1666L36.828 15.3494L36.831 15.5358L36.8365 15.7252L36.8444 15.9173L36.855 16.1116L36.8657 16.3098L36.8786 16.5098L36.8943 16.7116L36.9128 16.9147L36.9462 17.2172L36.9997 17.6239L37.0456 17.9368L37.0807 18.146L37.1191 18.3503L37.1613 18.5533L37.2073 18.7547L37.256 18.955L37.3073 19.1535L37.3629 19.3499L37.4229 19.5426L37.4877 19.732L37.5094 19.7902L37.4911 19.8306L37.429 19.961L37.3652 20.0884L37.3004 20.2115L37.2347 20.3305L37.1675 20.4452L37.0986 20.5547L37.0291 20.66L36.9601 20.7596L36.8912 20.8544L36.8234 20.9435L36.7558 21.028L36.6889 21.1077L36.6224 21.1828L36.5565 21.2533L36.4899 21.3189L36.4235 21.3808L36.3563 21.4398L36.2877 21.4964L36.2175 21.5507L36.1443 21.6035L36.0674 21.6549L35.9862 21.7051L35.8998 21.7541L35.8077 21.8018L35.7098 21.8466L35.6059 21.8884L35.4951 21.9278L35.378 21.9639L35.2541 21.9965L35.1239 22.0248L34.987 22.0484L34.8436 22.0668L34.6945 22.0794L34.5393 22.0856L34.3787 22.085L34.2126 22.0772L34.0423 22.0606L33.8675 22.0354L33.6882 22.0019L33.5044 21.9595L33.3113 21.9066L33.2056 21.8743L33.2148 21.877L33.1705 21.8626L33.076 21.8293L32.9838 21.7934L32.8935 21.7551L32.8052 21.7146L32.7188 21.6717L32.6343 21.6266L32.5518 21.5791L32.4711 21.5295L32.3925 21.4777L32.3154 21.4237L32.2404 21.3676L32.1671 21.3092L32.0955 21.2488L32.0257 21.1863L31.9577 21.1217L31.8915 21.0549L31.8276 20.9855L31.7656 20.9141L31.7052 20.8407L31.6465 20.7653L31.5895 20.6881L31.5342 20.6091L31.482 20.5301L31.406 20.4076L31.3081 20.2345L31.2168 20.0548L31.1318 19.8682L31.0529 19.675L30.9802 19.4756L30.9134 19.2702L30.8523 19.0591L30.7996 18.8408L30.7539 18.6165L30.7136 18.3872L30.6787 18.1533L30.649 17.9152L30.6243 17.6734L30.6046 17.4278L30.5958 17.1749L30.5941 16.9173L30.5968 16.657L30.6039 16.3946L30.8157 16.01L31.0542 15.6136L31.0773 15.3467L31.1041 15.0791L31.134 14.8141L31.1486 14.4333L31.1759 13.9201L31.2136 13.4044L31.2478 13.0192L31.273 12.7655L31.2998 12.5135L31.3283 12.2634L31.3581 12.0155L31.3891 11.7697L31.4214 11.5266L31.4546 11.2862L31.4883 11.0494L31.5227 10.8161L31.5575 10.5861L31.5925 10.3609L31.6085 10.2591L31.7206 9.87338L31.8371 9.46287L31.9489 9.05907L32.056 8.6623L32.1213 8.41326L33.3367 8.24388L35.3705 7.9985L37.4226 7.71448L39.5285 7.31523L41.123 6.98684L42.185 6.7722L43.2487 6.56072L44.3123 6.35329L45.376 6.15001L46.4407 5.95117L47.5047 5.75748L48.5871 5.53275L49.6849 5.28293L50.7975 5.01136L51.9147 4.73989L53.0344 4.47277L54.158 4.20862L55.286 3.94743L56.4164 3.69306L57.5508 3.44323L58.1177 3.32069C58.6743 3.25339 59.3942 2.68851 59.7256 2.05891C60.057 1.4294 59.8745 0.973531 59.3178 1.04083V1.04083Z" fill="white"/>
<path fill-rule="evenodd" clip-rule="evenodd" d="M64.5697 1.33057L64.4618 1.47712L64.3799 1.56932L64.324 1.62279L64.2905 1.64868L64.2743 1.65145V1.63682L64.2956 1.59976L64.3212 1.56666C64.4177 1.48503 64.505 1.39747 64.5826 1.30715L64.5697 1.33057ZM64.1154 0.422946L64.1631 0.384246L64.1647 0.383146C64.1482 0.396446 64.1317 0.409046 64.1154 0.422946V0.422946ZM65.3989 0.180557C65.2731 -0.0479227 64.9378 -0.0536545 64.5597 0.12996C64.3258 0.140435 64.0218 0.275922 63.7309 0.521894L63.6969 0.539287L63.6108 0.595715L63.5185 0.665089L63.4245 0.742567L63.3271 0.834275L63.2205 0.945056L63.1005 1.08627L62.9664 1.27394L62.8325 1.52228L62.7417 1.81846L62.7548 2.0918L62.8719 2.26613L63.0298 2.34084L63.1811 2.35724L63.3125 2.34697L63.4255 2.32503L63.5246 2.29805L63.6144 2.26731L63.6976 2.2351L63.7766 2.20041L63.8811 2.15031L64.0208 2.07579L64.168 1.98834L64.3167 1.89228L64.4698 1.78486L64.6314 1.66143L64.7457 1.56725C65.2806 1.1175 65.573 0.496595 65.3989 0.180557V0.180557Z" fill="white"/>
<path fill-rule="evenodd" clip-rule="evenodd" d="M24.441 4.58721L24.4334 4.64996L24.422 4.71025L24.4065 4.76776L24.3891 4.82182L24.3703 4.87242L24.3502 4.91965L24.3291 4.96353L24.306 5.00434L24.2821 5.04219L24.2579 5.07708L24.233 5.10989L24.2075 5.14082L24.1811 5.17017L24.1531 5.19794L24.1237 5.22452L24.0926 5.25032L24.0599 5.27542L24.0251 5.30002L23.9884 5.32394L23.9495 5.34706L23.9146 5.36624L23.8546 5.39598L23.7605 5.43423L23.6612 5.46466L23.5579 5.4872L23.4486 5.50123L23.4137 5.50281L23.4755 5.46249L23.687 5.29953L23.8767 5.13331L24.0463 4.96679L24.1999 4.80097L24.3399 4.63524L24.4462 4.4959L24.4457 4.52139L24.441 4.58721ZM20.6031 5.62061L20.636 5.74878L20.6784 5.87379L20.7328 5.99456L20.7985 6.11137L20.8746 6.22551L20.9608 6.33698L21.0546 6.44845L21.156 6.56002L21.2086 6.61853C21.2568 6.74018 21.4511 6.71715 21.6427 6.56714C21.8253 6.42424 21.9378 6.21869 21.9067 6.09427L21.9072 6.09476L21.9664 6.14032L22.0284 6.18153L22.093 6.21839L22.1602 6.251L22.2298 6.27937L22.3016 6.30348L22.3756 6.32344L22.4515 6.33925L22.5293 6.35101L22.6087 6.35872L22.6897 6.36238L22.7722 6.36208L22.8561 6.35783L22.9803 6.34429L23.1503 6.31297L23.3274 6.26563L23.5073 6.20209L23.6887 6.12313L23.8316 6.0501L23.9296 5.99387L24.0215 5.93615L24.1129 5.87389L24.2034 5.80709L24.2928 5.73574L24.3807 5.65984L24.4664 5.57989L24.5497 5.49629L24.6302 5.40942L24.707 5.31939L24.7797 5.2266L24.8478 5.13153L24.9109 5.03488L24.969 4.93685L25.0231 4.83773L25.0719 4.73772L25.1154 4.63702L25.1534 4.53582L25.1861 4.43413L25.2154 4.33146L25.2407 4.22759L25.2609 4.12314L25.2759 4.01789L25.2818 3.96136C25.282 3.95859 25.2821 3.95593 25.2822 3.95326L25.2865 3.90088L25.2936 3.78437L25.2929 3.66855L25.2873 3.55628L25.2738 3.44965L25.256 3.34618L25.2316 3.24766L25.2064 3.17364L25.2065 3.16425L25.1736 3.05426L25.1422 3.01107C25.1888 2.85938 25.1901 2.72468 25.1413 2.62586L25.1221 2.61756L25.0628 2.56518L24.971 2.50312L24.8226 2.45924L24.5789 2.47822L24.5657 2.48355L24.5056 2.45569L24.4162 2.4208L24.3233 2.39076L24.2257 2.36704L24.1247 2.34826L24.0201 2.33453L23.9123 2.32593L23.8009 2.32257L23.6846 2.32801L23.5645 2.33947L23.4413 2.35696L23.3145 2.38068L23.1839 2.41112L23.0483 2.45292L22.9091 2.50253L22.7661 2.56024L22.6195 2.62754L22.469 2.7067L22.3154 2.79574L22.1596 2.89723L22.0023 3.00979L21.8447 3.13371L21.6893 3.2696L21.5368 3.41487L21.3903 3.56962L21.252 3.73199L21.124 3.8992L21.0072 4.06957L20.9057 4.24064L20.8169 4.41061L20.7412 4.57812L20.6796 4.74187L20.6358 4.90038L20.6037 5.05445L20.583 5.20417L20.5788 5.34716L20.5861 5.48571L20.6031 5.62061Z" fill="white"/>
</g>
<defs>
<clipPath id="clip0_0_52">
<rect width="66" height="42" fill="white"/>
</clipPath>
</defs>
</svg>
