<svg width="21" height="21" viewBox="0 0 21 21" fill="none" xmlns="http://www.w3.org/2000/svg">
<path fill-rule="evenodd" clip-rule="evenodd" d="M20.836 19.6861C20.836 20.3212 20.3212 20.836 19.6861 20.836H14.3765V12.7669H17.0849L17.4907 9.62254H14.3765V7.61505C14.3765 6.70468 14.6296 6.08376 15.935 6.08376L17.6003 6.08319V3.27089C17.3119 3.2323 16.3238 3.14659 15.1739 3.14659C12.7731 3.14659 11.1294 4.61205 11.1294 7.30346V9.62254H8.41419V12.7669H11.1294V20.836H1.14989C0.514784 20.836 0 20.3212 0 19.6861V1.14989C0 0.514784 0.514784 0 1.14989 0H19.6861C20.3212 0 20.836 0.514784 20.836 1.14989V19.6861Z" fill="black"/>
</svg>
