<svg width="21" height="21" viewBox="0 0 21 21" fill="none" xmlns="http://www.w3.org/2000/svg">
<path fill-rule="evenodd" clip-rule="evenodd" d="M18.3353 0H2.47346C1.10732 0 0 1.10505 0 2.46778V18.3409C0 19.7042 1.10732 20.8087 2.47346 20.8087H18.3353C19.7014 20.8087 20.8087 19.7042 20.8087 18.3409V2.46778C20.8087 1.10505 19.7014 0 18.3353 0ZM14.9565 3.25159C14.9565 2.89232 15.2477 2.60116 15.6064 2.60116H17.5571C17.9164 2.60116 18.2076 2.89232 18.2076 3.25159V5.20232C18.2076 5.56103 17.9164 5.85276 17.5571 5.85276H15.6064C15.2477 5.85276 14.9565 5.56103 14.9565 5.20232V3.25159ZM10.4285 6.43622C12.6386 6.43622 14.4304 8.22405 14.4304 10.4285C14.4304 12.6335 12.6386 14.4213 10.4285 14.4213C8.21895 14.4213 6.42713 12.6335 6.42713 10.4285C6.42713 8.22405 8.21895 6.43622 10.4285 6.43622ZM18.858 18.2076C18.858 18.5668 18.5668 18.858 18.2076 18.858H2.60116C2.24189 18.858 1.95073 18.5668 1.95073 18.2076V8.45392H4.55189C4.21305 8.94146 4.09841 9.85127 4.09841 10.4285C4.09841 13.9105 6.93851 16.7438 10.4285 16.7438C13.919 16.7438 16.7591 13.9105 16.7591 10.4285C16.7591 9.85127 16.6768 8.95508 16.2568 8.45392H18.858V18.2076Z" fill="black"/>
</svg>
