<svg width="22" height="18" viewBox="0 0 22 18" fill="none" xmlns="http://www.w3.org/2000/svg">
<path fill-rule="evenodd" clip-rule="evenodd" d="M20.6708 0.328054C19.8274 0.839432 18.8955 1.21176 17.8994 1.41154C17.1059 0.542595 15.9719 0 14.7165 0C12.31 0 10.357 2.00238 10.357 4.47186C10.357 4.82262 10.3944 5.16316 10.4694 5.49065C6.84487 5.30392 3.63186 3.52516 1.47965 0.81673C1.10392 1.47965 0.889378 2.24814 0.889378 3.06714C0.889378 4.61773 1.659 5.98727 2.82989 6.78924C2.11589 6.76768 1.44219 6.56392 0.853054 6.23132V6.28638C0.853054 8.45392 2.35654 10.2616 4.35324 10.6714C3.98773 10.7758 3.60178 10.8286 3.20392 10.8286C2.92297 10.8286 2.64884 10.8019 2.38322 10.7492C2.9383 12.5251 4.54792 13.8186 6.45665 13.8532C4.96451 15.0536 3.08303 15.7687 1.04035 15.7687C0.68846 15.7687 0.340541 15.7483 0 15.7074C1.92973 16.9742 4.22327 17.7149 6.68538 17.7149C14.7079 17.7149 19.0935 10.9013 19.0935 4.99176C19.0935 4.79708 19.0901 4.60241 19.0828 4.4117C19.9347 3.78114 20.6748 2.99392 21.2571 2.09716C20.4761 2.45303 19.635 2.69368 18.753 2.80095C19.6537 2.24814 20.345 1.37181 20.6708 0.328054Z" fill="black"/>
</svg>
